<svg width="946" height="14" viewBox="0 0 946 14" fill="none" xmlns="http://www.w3.org/2000/svg">
<g clip-path="url(#clip0_820:4004)">
<path d="M577.284 4.36309L584.52 3.1119C575.5 3.1119 569.484 2.76442 576.263 1C577.284 5.36294 604.433 0.449125 605.384 4.81206L610.155 3.8818C608.799 3.8818 608.57 3.67332 607.215 3.72144C616.493 1.63621 614.116 6.9294 626.054 6.23967C630.226 5.91886 633.096 5.27738 630.297 4.76409L639.575 5.83866C642.269 5.83866 641.618 5.00462 638.924 5.08482L653.009 5.43766L652.903 5.3094C654.91 5.98309 659.488 7.04172 661.706 7.49085C665.228 6.86528 659.946 7.02568 660.826 6.48031L668.661 7.53902C671.848 6.4162 665.369 5.32542 659.858 5.48582C667.182 1.12288 666.355 6.57652 682.147 4.04217L674.753 3.4808C679.524 1.0106 685.317 1.87687 693.662 0.369089C691.69 1.1711 676.918 4.25078 685.422 5.34152C688.799 4.88595 692.24 5.01655 695.563 5.72647C695.563 4.12244 700.088 4.55546 705.687 4.6517L705.317 2.59851C711.374 3.19199 710.899 4.20267 714.455 5.14904C721.216 4.95656 722.607 3.36858 724.209 1.941C735.019 1.62019 716.744 4.49132 729.491 4.87629C738.488 4.09032 744.791 4.87637 755.566 6.15958C761.851 5.45381 754.457 4.90841 756.71 4.31492L762.292 5.91894C763.665 5.91894 763.225 5.37359 762.996 5.13299C767.697 5.75855 763.383 7.17008 770.778 7.73149C772.785 9.99316 785.954 4.42727 795.11 6.99371C797.363 6.41626 794.018 5.74252 794.705 4.94051C807.276 6.62473 805.48 6.1755 815.832 8.43717L824.636 7.08984C818.192 8.69387 826.396 10.4583 833.65 11.9019C831.361 12.6398 829.82 12.6952 828.5 13L839.5 14C840.891 13.6632 839.771 13.3688 837.887 12.5187C838.679 12.6791 839.419 12.8556 840 13C844.12 12.2461 842.066 11.3565 839.108 10.2176C837.7 10.6186 836.309 11.0518 834.953 11.4848C832.101 10.2337 829.442 8.85423 830.041 7.65121C831.272 7.95688 832.535 8.14499 833.808 8.21258C833.069 7.8597 832.594 7.57112 832.946 7.3626C833.298 7.15408 834.53 7.60315 836.467 8.11644L839.09 5.83866L839.724 6.73701L854.813 5.3094C865.588 7.6192 874.972 11.0037 892.103 11.9501C887.842 10.3461 891.188 9.2072 890.959 7.13801C886.275 9.23928 877.701 6.2397 868.828 6.67278C873.458 6.44822 872.349 5.50196 871.257 5.18115L887.103 7.08984C886.733 5.48582 890.466 5.8707 894.586 5.19701C891.469 8.40506 906.382 7.33036 912.826 8.40506C913.231 7.33036 911.681 6.22367 903.829 6.48031C912.491 4.05824 915.027 10.2499 923.53 8.19672C921.611 8.19672 920.59 8.34108 919.833 7.79572C924.305 8.75813 935.256 7.98806 932.686 7.05773H930.767C934.883 6.93861 940.379 6.41126 946 6.5C957.788 6.6861 970.126 7.93312 971.437 9.76863C970.92 8.34959 970.093 7.04021 969.008 5.91894L991.72 15.11C989.73 12.7681 997.407 7.18605 986.843 5.85472C991.221 5.29939 995.664 5.33734 1000.03 5.96711C997.952 6.28791 994.871 9.35158 997.688 9.5601C1005.45 6.96159 1003.08 8.1646 1012.65 5.95105C1009.56 6.4483 1012.99 10.1214 1017.94 10.0091C1017.18 9.44767 1018.36 6.38399 1016.56 5.99902L1028.76 9.60807C1025.72 8.95042 1028.22 6.54451 1030.95 5.51793C1029.68 6.23974 1041.51 5.51784 1044.75 5.82261L1039.57 6.65673C1053.34 6.11136 1053.18 11.7254 1066.85 11.4688C1065.19 10.7309 1062.76 6.88127 1069.7 6.43214C1072.89 8.27676 1083.78 15.3185 1095.88 16.7461L1098.2 15.6874L1107.48 16.8904C1097.51 12.5701 1087.21 8.92457 1076.65 5.98316C1081.79 5.14907 1078.08 4.73188 1085.81 4.82812C1088.52 3.84967 1081.6 3.33638 1079.33 3.2241L1097.29 2.58265C1096.5 4.74808 1111.04 4.74803 1110.35 6.54453L1090.86 4.49134C1090.07 6.64073 1102.15 10.6026 1114.88 10.2337C1118.12 9.36749 1112.46 6.38405 1112.73 5.66224C1114.38 6.41613 1124.81 7.08992 1125.99 6.56059L1120.58 5.40554C1127.62 4.60353 1132.15 8.2607 1140.67 6.20755C1143.59 6.06319 1149.47 3.43269 1149.95 4.69987C1145.16 7.17006 1144.21 14.773 1147.41 16.6337C1148.43 16.4573 1162.85 14.2758 1166.2 13.0568C1171.04 11.1319 1158.93 8.46922 1163.06 6.80103C1163.24 7.39452 1165.9 8.11633 1167.03 8.40506C1170.11 7.89177 1165.74 6.57647 1172.45 6.80103C1173.58 8.9825 1186.09 6.60859 1175.62 8.6457C1182.19 9.27127 1182.66 8.19662 1190.3 8.29286C1187.85 9.7044 1197.22 13.1049 1203.79 13.7145C1203.4 13.1691 1204.88 12.4473 1205.55 12.1104C1219 11.918 1226.22 10.9235 1238.75 10.9074C1239.92 10.3781 1245.97 9.73657 1243.39 8.7902C1245.75 9.51336 1248.23 9.91333 1250.73 9.97716C1258.21 8.08442 1242.1 9.67224 1247.8 7.41057C1248.3 8.67775 1257.8 9.15909 1263.32 9.96111C1261.55 11.918 1250.59 10.33 1245.08 9.54404C1245.08 12.2388 1254.65 15.0779 1267.75 16.329C1278.18 17.0027 1272.28 14.5807 1274.09 14.9656C1293.65 14.5005 1290.76 19.7777 1307.01 17.7406C1313.46 16.0082 1307.3 14.3079 1308.78 13.0568C1300.29 12.4151 1295.75 14.1636 1290.01 14.0834L1297.05 13.2813C1293.28 12.5663 1289.41 12.3932 1285.59 12.7681C1290.99 11.1641 1318.65 12.4633 1333.76 11.0357C1336.43 11.6131 1341.07 12.2067 1338.88 12.9124L1334.09 12.6718C1329.71 14.0513 1343.09 14.5966 1337.05 15.2382C1343.46 16.2167 1350.64 17.7566 1359.66 16.9707L1361.42 14.9978C1361.22 15.5752 1355.52 16.1687 1352.98 15.5752C1356.75 16.4414 1366.82 12.9124 1370.94 15.4788L1364.62 16.8422C1371.05 17.8367 1379.01 19.922 1387 19.3125C1383.37 21.2533 1385.24 19.0879 1379.48 21.3496C1384.41 18.5265 1359.02 21.4779 1366.95 18.5105C1361.1 21.1411 1356.84 19.6172 1349.23 21.8628C1349.46 21.2212 1351.93 20.6278 1345.22 20.9486C1344.75 20.7129 1344.25 20.5195 1343.74 20.3712H1343.28H1343.65C1343.37 20.2749 1343.34 20.2429 1343.79 20.3712C1344.99 20.2313 1346.15 19.8943 1347.21 19.3767C1343.88 17.901 1333.12 17.9491 1329.6 17.1792C1325.62 17.484 1331.28 17.9171 1329.09 18.6068L1323.71 17.4518C1323.16 18.8954 1313.14 19.8418 1322.51 20.6598H1314.06C1308.77 21.5208 1303.38 21.6991 1298.04 21.1893C1294.04 21.494 1287.96 19.5852 1291.43 20.724L1278.19 19.8259L1278.07 20.1787C1265.01 20.3712 1251.17 17.8048 1236.24 20.4033C1230.83 19.8329 1225.37 19.6987 1219.93 20.0023L1218.49 21.2533C1212.84 20.8042 1201.53 22.4884 1199.12 21.2533C1193.03 24.6057 1171.71 21.9913 1161.78 22.5847L1161.39 20.9807C1154.56 20.9807 1148.01 20.6118 1139.51 19.9541L1140.04 18.5105C1132.71 17.3395 1121.23 19.5371 1109.65 19.3928C1110.44 19.9381 1113.38 19.7938 1115.46 19.3928C1101.62 22.6008 1086.27 17.0348 1073.73 19.3928C1071.23 18.939 1068.66 18.939 1066.16 19.3928C1066.42 19.3668 1066.68 19.3668 1066.93 19.3928C1066.6 19.3928 1066.12 19.3928 1065.65 19.3928C1064.26 19.6494 1062.85 19.9381 1061.3 20.1627C1062.5 19.8206 1063.72 19.5633 1064.96 19.3928C1062.55 19.3928 1058.89 19.1841 1055.3 18.8312L1053.78 20.4352H1052.95C1049.43 21.0127 1050.12 19.7135 1052 18.5426C1050.4 18.3384 1048.82 18.0275 1047.27 17.6123C1044.4 20.0986 1037.87 16.7782 1033.96 19.4249C1031.55 18.1417 1015.95 18.4624 1014.04 15.7355C1013.92 16.0884 1012.87 16.2488 1014.8 16.2809C1010.95 16.768 1007.05 16.714 1003.22 16.1205L1001.46 18.0934L992.741 15.4467C987.459 16.6497 985.241 17.3395 990.505 18.8473C977.793 16.5375 980.188 17.9811 969.377 15.6392L969.906 16.9064C966.032 16.9064 959.852 15.1582 957.581 16.2168C948.954 18.6229 914.833 16.5536 892.667 18.7832C896.962 15.0459 882.349 20.3872 881.469 17.5642C880.184 18.4464 877.085 18.9436 880.677 19.7135C869.356 18.8473 863.669 21.125 855.869 18.6708C854.566 19.5691 858.281 19.9701 857.137 20.4994C855.594 20.0539 853.953 19.9711 852.366 20.2588C851.204 20.7881 854.021 20.9968 855.887 21.3817C844.337 21.2374 843.158 18.5105 842.33 15.9601C836.467 17.1631 833.527 16.9867 829.301 15.3185C827.277 16.1526 823.861 17.0348 831.062 17.3235C827.03 17.4518 806.413 18.5586 805.973 16.5054C803.75 16.8838 801.47 16.8838 799.247 16.5054C790.18 16.6177 789.388 16.8103 780.479 16.6178L782.961 16.2809C779.44 13.8107 775.549 15.7354 768.366 15.4307L768.577 15.6874C752.115 17.4678 761.534 14.8212 745.231 16.8583L746 16.5C744.486 13.1797 731.727 17.1952 722.307 15.928L725.706 15.0618C720.564 13.9229 711.321 19.5531 706.145 19.9702C705.018 20.2589 707.905 20.4352 709.49 20.6437C695.968 22.6007 707.729 18.6228 697.659 18.1576C695.792 19.2484 700.053 20.9165 693.275 21.125C689.894 22.0072 673.573 17.5961 664.312 19.6814C666.355 18.8473 668.379 18.0774 663.696 17.3717C656.513 17.083 644.329 20.5796 637.797 17.9009C636.899 18.1255 636.547 18.3501 636.512 18.5586C631.019 17.8849 618.676 17.4198 615.384 15.9922C610.313 21.3176 581.263 13.4097 581.386 18.318L564.502 18.0452L564.942 18.5426C554.149 18.8794 550.329 17.6924 546.543 16.5215C544.043 16.8583 545.874 17.3075 546.068 17.5642C530.222 18.5586 528.743 18.3501 515.521 15.9601L514.148 17.5642C510.626 16.6338 491.347 20.0504 475.889 18.2058C476.03 18.3822 476.347 18.6869 477.65 18.9115C460.255 17.0508 435.993 23.3226 429.62 17.532L418.14 16.1044C433 15.6553 414.891 15.6392 421 14.6768C415.172 14.3239 406.943 14.3721 414.108 14.6768L415.235 14.3882C417.876 17.4038 396.784 15.4629 397.171 17.5963C367.944 17.4519 339.457 19.1201 312.08 19.2003L315.231 16.8422L305.688 16.9867C303.171 17.5321 302.308 18.8152 309.122 18.719C305.6 20.0503 297.695 17.6122 297.501 17.115C284.173 18.0614 302.783 19.8578 298.628 19.906L293.065 19.7295L294.332 19.4568C289.825 18.4944 289.42 17.484 281.233 17.5963C276.057 18.0614 278.575 19.0399 276.532 19.2003C276.532 19.3607 275.863 19.4409 273.398 19.2003L261.373 19.4088L266.18 17.5481C260.898 16.6338 254.877 17.6443 260.423 15.5431C252.271 18.7511 215.526 16.714 210.526 17.7085C203.061 16.3611 195.684 16.3932 186.546 16.5536C188.818 16.1686 190.191 14.0834 182.303 14.3401C185.191 18.6388 167.884 16.2007 161.51 19.2964C167.197 17.2433 139.115 18.7831 148.041 15.8799C141.474 16.2327 147.636 17.4839 142.654 18.4944C127.019 16.8904 108.18 19.5853 88.8311 19.0239C88.5318 18.4625 91.7713 17.5962 87.6338 16.7461L77.4221 19.5692C73.6016 19.2965 73.9009 16.361 66.8583 18.2698C67.8443 17.8047 69.3056 17.0829 66.7527 16.9064C28.8638 19.6493 -10.7153 14.6449 -49.1499 19.8259C-43.868 18.7191 -47.3893 18.6228 -51.3859 18.5747C-48.7978 18.318 -51.3859 17.1791 -50.9458 16.4252L-67.038 18.5426C-69.9782 16.4253 -84.3098 18.3983 -86 16.3772L-80.8942 16.73C-87.6726 14.34 -71.4043 11.4047 -72.3903 8.34103C-64.8019 11.0679 -52.3719 4.29895 -39.9066 8.19672C-37.16 7.57115 -42.2482 7.21817 -40.7869 6.49636C-37.6178 7.81166 -33.7444 8.10039 -26.7018 7.50691L-27.4941 7.17012C-7.63412 7.49093 0.869705 6.19165 23.1946 5.34152L21.5396 6.8492C24.2564 6.7692 26.955 6.41427 29.5857 5.79069C35.0789 8.10048 16.1168 5.91889 21.1346 8.46928C27.4905 5.37352 54.9388 8.46933 59.2348 4.9084C66.6118 4.9084 57.0868 6.65671 64.5167 6.64067L66.471 5.69435L68.3373 6.91343C73.179 6.72094 75.6087 5.51794 75.8023 4.71593C74.2659 4.6974 72.7318 4.60092 71.2071 4.42711C77.475 3.3043 88.8135 4.81208 91.0319 4.42711L83.9893 5.00454C104.113 5.90279 128.692 4.65165 148.147 6.60856L146.668 7.31443C161.51 8.64577 158.57 6.5285 174.838 7.15407L174.239 6.97765C178.207 7.74876 182.262 8.08264 186.317 7.97213C182.198 7.122 194.064 6.36796 188.677 5.40554C204.769 6.83312 196.635 6.52853 207.269 9.19121L209.716 8.00405C213.343 9.07874 213.66 9.60822 221.794 9.96111C215.121 8.93453 227.076 8.14856 219.505 6.75306C236.601 4.15455 244.894 9.38369 252.729 5.58216C260.581 8.7902 237.939 7.41067 242.341 8.11644C238.661 9.19114 248.802 10.5705 254.172 10.2497C259.63 10.2497 263.451 6.0312 277.184 6.09536C275.828 6.09536 275.722 5.85473 274.367 5.87077C279.508 5.03668 284.438 7.0096 290.741 5.64619C294.262 7.63517 298.928 5.53392 299.949 8.06827L287.343 7.49085C294.491 8.1485 301.181 11.1159 312.942 9.6723C310.739 8.9221 308.455 8.38448 306.129 8.06827C309.65 7.31438 312.749 8.56565 316.305 7.79572C315.302 5.26136 301.005 7.25027 293.417 5.3094C297.114 4.23471 307.889 7.15392 303.981 4.395C309.509 7.89177 317.52 3.9459 326.869 6.62462L326.253 5.02059C328.619 5.54604 331.037 5.85247 333.471 5.935L328.577 3.96208C336.112 5.5661 343.084 2.50228 350.321 3.41657C335.197 3.41657 346.923 5.24528 340.531 6.35206C359.177 8.38917 351.254 2.37408 372.135 3.14401C369.3 2.91945 361.571 4.05831 365.937 4.74804C369.874 4.53032 373.778 3.96074 377.593 3.04768C391.431 3.36848 375.48 4.65179 381.361 5.55005C386.079 3.68938 388.157 6.30388 394.213 6.89737V5.29335C410.059 4.29886 398.386 8.50142 412.577 7.33049L406.59 5.18115L413.985 5.72647L412.453 3.97814C420.499 5.2774 423.017 4.94042 430.905 4.44317C429.144 5.53391 431.926 7.25025 438.916 7.29838C443.669 6.38408 436.24 5.83867 446.134 6.04719C444.807 5.2897 443.303 4.8269 441.743 4.69595C440.184 4.56501 438.612 4.76962 437.155 5.29335C436.715 4.7961 434.954 4.33088 434.497 3.83364C439.62 2.77498 447.384 3.59299 450.958 3.59299C449.658 3.61051 448.361 3.73414 447.085 3.96208L461.434 6.11142C463.688 5.51793 461.91 5.05266 460.131 4.60353C463.036 4.76393 465.043 5.48575 469.322 5.61407C468.213 4.3469 468.477 3.06368 462.438 2.40603L476.1 3.80152C477.016 3.25616 483.143 2.29377 481.382 1.82861C488.953 1.09076 499.957 4.26678 510.01 3.28832C511.197 3.70166 512.454 3.92423 513.725 3.94603C523.162 3.67334 531.525 2.11735 542.723 3.84969L549.061 1.58797C557.864 2.10125 540.469 4.42718 555.065 5.29335C565.4 5.99912 558.921 3.36856 562.547 2.72695C567.688 3.86581 576.633 6.19164 586.105 4.33097C582.689 4.20265 580.224 4.49141 577.284 4.36309ZM685.387 5.35757C683.292 5.03677 679.119 4.04228 677.587 4.95657C679.982 6.72099 681.813 5.87086 685.44 5.35757H685.387ZM849.725 9.09487C847.502 8.6664 845.195 8.77695 843.034 9.4156C845.27 9.55367 847.517 9.44604 849.725 9.09487ZM1307.49 19.8578H1307.26C1302.61 20.3871 1304.27 20.1465 1307.51 19.8578H1307.49ZM1317.19 19.2003C1318.16 19.4088 1318.09 19.6172 1317.68 19.8417C1315.96 19.4204 1314.17 19.3168 1312.4 19.5371C1313.05 19.12 1314.3 18.8474 1317.21 19.2003H1317.19ZM275.229 18.5907L277.113 18.1737C272.87 17.7246 274.067 18.1416 275.212 18.5907H275.229Z" fill="#BDB246"/>
</g>
<defs>
<clipPath id="clip0_820:4004">
<rect width="946" height="14" fill="white" transform="matrix(1 0 0 -1 0 14)"/>
</clipPath>
</defs>
</svg>
