<svg width="946" height="14" viewBox="0 0 946 14" fill="none" xmlns="http://www.w3.org/2000/svg">
<g clip-path="url(#clip0_504:2684)">
<path d="M577.284 9.63691L584.52 10.8881C575.5 10.8881 569.484 11.2356 576.263 13C577.284 8.63706 604.433 13.5509 605.384 9.18794L610.155 10.1182C608.799 10.1182 608.57 10.3267 607.215 10.2786C616.493 12.3638 614.116 7.0706 626.054 7.76033C630.226 8.08114 633.096 8.72262 630.297 9.23591L639.575 8.16134C642.269 8.16134 641.618 8.99538 638.924 8.91518L653.009 8.56234L652.903 8.6906C654.91 8.01691 659.488 6.95828 661.706 6.50915C665.228 7.13472 659.946 6.97432 660.826 7.51969L668.661 6.46098C671.848 7.5838 665.369 8.67458 659.858 8.51418C667.182 12.8771 666.354 7.42348 682.147 9.95783L674.753 10.5192C679.524 12.9894 685.317 12.1231 693.662 13.6309C691.69 12.8289 676.918 9.74922 685.422 8.65848C688.799 9.11405 692.24 8.98345 695.563 8.27353C695.563 9.87756 700.088 9.44454 705.687 9.3483L705.317 11.4015C711.374 10.808 710.899 9.79733 714.455 8.85096C721.216 9.04344 722.607 10.6314 724.209 12.059C735.019 12.3798 716.744 9.50868 729.491 9.12371C738.488 9.90968 744.791 9.12363 755.566 7.84042C761.851 8.54619 754.457 9.09159 756.71 9.68508L762.292 8.08106C763.665 8.08106 763.225 8.62641 762.996 8.86701C767.697 8.24145 763.383 6.82992 770.778 6.26851C772.785 4.00684 785.954 9.57273 795.11 7.00629C797.363 7.58374 794.018 8.25748 794.705 9.05949C807.276 7.37527 805.48 7.8245 815.832 5.56283L824.636 6.91016C818.192 5.30613 826.396 3.54171 833.65 2.09809C831.361 1.36024 829.82 1.30476 828.5 1L839.5 0C840.891 0.336844 839.771 0.631154 837.887 1.48129C838.68 1.32088 839.419 1.14436 840 1C844.12 1.75389 842.066 2.64354 839.108 3.78239C837.7 3.38139 836.309 2.94824 834.953 2.51515C832.101 3.76629 829.442 5.14577 830.041 6.34879C831.272 6.04312 832.535 5.85501 833.808 5.78742C833.069 6.1403 832.594 6.42888 832.946 6.6374C833.298 6.84592 834.53 6.39684 836.467 5.88356L839.09 8.16134L839.724 7.26299L854.813 8.6906C865.588 6.38081 874.972 2.9963 892.103 2.04992C887.842 3.65394 891.188 4.7928 890.959 6.86199C886.275 4.76072 877.701 7.7603 868.828 7.32722C873.458 7.55178 872.349 8.49804 871.257 8.81885L887.103 6.91016C886.733 8.51418 890.466 8.1293 894.586 8.80299C891.469 5.59494 906.382 6.66964 912.826 5.59494C913.231 6.66964 911.681 7.77633 903.829 7.51969C912.491 9.94176 915.027 3.75013 923.53 5.80328C921.611 5.80328 920.59 5.65892 919.833 6.20428C924.305 5.24187 935.256 6.01194 932.686 6.94227H930.767C934.883 7.06139 940.379 7.58874 946 7.5C957.788 7.3139 970.126 6.06688 971.437 4.23137C970.92 5.65041 970.093 6.95979 969.008 8.08106L991.72 -1.10995C989.73 1.23192 997.407 6.81394 986.843 8.14528C991.22 8.70061 995.664 8.66266 1000.03 8.03289C997.953 7.71209 994.871 4.64842 997.688 4.4399C1005.45 7.03841 1003.08 5.8354 1012.65 8.04895C1009.56 7.5517 1012.99 3.87864 1017.94 3.99092C1017.18 4.55233 1018.36 7.61601 1016.56 8.00098L1028.76 4.39193C1025.72 5.04958 1028.22 7.45549 1030.95 8.48207C1029.68 7.76026 1041.51 8.48216 1044.75 8.17739L1039.57 7.34327C1053.34 7.88864 1053.18 2.27456 1066.85 2.53121C1065.19 3.26906 1062.76 7.11873 1069.7 7.56786C1072.89 5.72324 1083.78 -1.31851 1095.88 -2.74608L1098.2 -1.68738L1107.48 -2.89039C1097.51 1.4299 1087.21 5.07543 1076.65 8.01684C1081.79 8.85093 1078.08 9.26812 1085.81 9.17188C1088.52 10.1503 1081.6 10.6636 1079.33 10.7759L1097.29 11.4174C1096.5 9.25192 1111.04 9.25197 1110.35 7.45547L1090.86 9.50866C1090.07 7.35927 1102.15 3.39741 1114.88 3.76634C1118.12 4.63251 1112.46 7.61595 1112.73 8.33776C1114.38 7.58387 1124.81 6.91008 1125.99 7.43941L1120.58 8.59446C1127.62 9.39647 1132.15 5.7393 1140.67 7.79245C1143.59 7.93681 1149.47 10.5673 1149.95 9.30013C1145.16 6.82994 1144.21 -0.773029 1147.41 -2.63369C1148.43 -2.45725 1162.85 -0.275813 1166.2 0.943243C1171.04 2.86807 1158.93 5.53078 1163.06 7.19897C1163.24 6.60548 1165.9 5.88367 1167.03 5.59494C1170.11 6.10823 1165.74 7.42353 1172.45 7.19897C1173.58 5.0175 1186.09 7.39141 1175.62 5.3543C1182.19 4.72873 1182.66 5.80338 1190.3 5.70714C1187.85 4.2956 1197.22 0.895067 1203.79 0.28554C1203.4 0.830907 1204.88 1.55272 1205.55 1.88956C1219 2.08204 1226.22 3.07654 1238.75 3.09258C1239.92 3.6219 1245.97 4.26343 1243.39 5.2098C1245.75 4.48664 1248.23 4.08667 1250.73 4.02284C1258.21 5.91558 1242.1 4.32776 1247.8 6.58943C1248.3 5.32225 1257.8 4.84091 1263.32 4.03889C1261.55 2.08199 1250.59 3.66998 1245.08 4.45596C1245.08 1.7612 1254.65 -1.07789 1267.75 -2.32902C1278.18 -3.00271 1272.28 -0.580679 1274.09 -0.965644C1293.65 -0.500478 1290.76 -5.77768 1307.01 -3.74057C1313.46 -2.00823 1307.3 -0.307894 1308.78 0.943243C1300.29 1.58485 1295.75 -0.163555 1290.01 -0.083354L1297.05 0.718657C1293.28 1.43374 1289.41 1.60684 1285.59 1.23186C1290.99 2.83588 1318.65 1.53675 1333.76 2.96433C1336.43 2.38688 1341.07 1.79332 1338.88 1.08755L1334.09 1.32819C1329.71 -0.0512657 1343.09 -0.596594 1337.05 -1.2382C1343.46 -2.21666 1350.64 -3.75664 1359.66 -2.97067L1361.42 -0.997756C1361.22 -1.5752 1355.52 -2.16867 1352.98 -1.57518C1356.75 -2.44135 1366.82 1.08759 1370.94 -1.47884L1364.62 -2.84222C1371.05 -3.83672 1379.01 -5.92201 1387 -5.31248C1383.37 -7.25335 1385.24 -5.08795 1379.48 -7.34962C1384.41 -4.52654 1359.02 -7.47791 1366.95 -4.51047C1361.1 -7.14106 1356.84 -5.61719 1349.23 -7.86282C1349.46 -7.22121 1351.93 -6.62781 1345.22 -6.94861C1344.75 -6.71291 1344.25 -6.51954 1343.74 -6.37119H1343.28H1343.65C1343.37 -6.27495 1343.34 -6.24287 1343.79 -6.37119C1344.99 -6.23127 1346.15 -5.89429 1347.21 -5.3767C1343.88 -3.901 1333.12 -3.94913 1329.6 -3.1792C1325.62 -3.48397 1331.28 -3.91708 1329.09 -4.6068L1323.71 -3.45176C1323.16 -4.89538 1313.14 -5.84175 1322.51 -6.6598H1314.06C1308.77 -7.5208 1303.38 -7.69911 1298.04 -7.18925C1294.04 -7.49402 1287.96 -5.58517 1291.43 -6.72403L1278.19 -5.82588L1278.07 -6.17871C1265.01 -6.3712 1251.17 -3.80479 1236.24 -6.4033C1230.83 -5.83291 1225.37 -5.69872 1219.93 -6.00229L1218.49 -7.25328C1212.84 -6.80416 1201.53 -8.48838 1199.12 -7.25328C1193.03 -10.6057 1171.71 -7.99126 1161.78 -8.58475L1161.39 -6.98072C1154.56 -6.98072 1148.01 -6.61178 1139.51 -5.95413L1140.04 -4.51047C1132.71 -3.33953 1121.23 -5.53712 1109.65 -5.39276C1110.44 -5.93813 1113.38 -5.79376 1115.46 -5.39276C1101.62 -8.6008 1086.27 -3.03485 1073.73 -5.39276C1071.23 -4.93901 1068.66 -4.93901 1066.16 -5.39276C1066.42 -5.3668 1066.68 -5.3668 1066.93 -5.39276C1066.6 -5.39276 1066.12 -5.39276 1065.65 -5.39276C1064.26 -5.6494 1062.85 -5.93809 1061.3 -6.16266C1062.5 -5.82063 1063.72 -5.56325 1064.96 -5.39276C1062.55 -5.39276 1058.89 -5.18408 1055.3 -4.83119L1053.78 -6.43522H1052.95C1049.43 -7.01266 1050.12 -5.71352 1052 -4.54258C1050.4 -4.3384 1048.82 -4.02753 1047.27 -3.61232C1044.4 -6.09855 1037.87 -2.77824 1033.96 -5.42487C1031.55 -4.14165 1015.95 -4.46238 1014.04 -1.73554C1013.92 -2.08843 1012.87 -2.24878 1014.8 -2.28086C1010.95 -2.76804 1007.05 -2.71398 1003.22 -2.12049L1001.46 -4.09341L992.741 -1.44673C987.459 -2.64975 985.241 -3.33947 990.505 -4.84725C977.793 -2.53746 980.188 -3.98108 969.377 -1.63921L969.906 -2.90645C966.032 -2.90645 959.852 -1.15817 957.581 -2.21683C948.954 -4.62286 914.833 -2.55363 892.667 -4.78322C896.962 -1.04585 882.349 -6.38723 881.469 -3.56415C880.184 -4.44636 877.085 -4.94355 880.677 -5.71349C869.356 -4.84731 863.669 -7.12498 855.869 -4.67083C854.566 -5.56908 858.281 -5.97011 857.137 -6.49944C855.594 -6.05395 853.953 -5.97114 852.366 -6.2588C851.204 -6.78812 854.021 -6.99676 855.887 -7.38173C844.337 -7.23737 843.158 -4.51052 842.33 -1.96013C836.467 -3.16315 833.527 -2.98666 829.301 -1.31848C827.277 -2.15257 823.861 -3.03478 831.062 -3.32351C827.03 -3.45183 806.413 -4.55859 805.973 -2.50544C803.75 -2.88376 801.47 -2.88376 799.247 -2.50544C790.18 -2.61772 789.388 -2.81032 780.479 -2.61783L782.961 -2.28086C779.44 0.189337 775.549 -1.73544 768.366 -1.43068L768.577 -1.68738C752.115 -3.46784 761.534 -0.821173 745.231 -2.85828L746 -2.5C744.486 0.820324 731.727 -3.19519 722.307 -1.92802L725.706 -1.06178C720.564 0.0770712 711.321 -5.55314 706.145 -5.97018C705.018 -6.25891 707.905 -6.43522 709.49 -6.64375C695.968 -8.60065 707.729 -4.6228 697.659 -4.15763C695.792 -5.24837 700.053 -6.91651 693.275 -7.12503C689.894 -8.00724 673.573 -3.59615 664.312 -5.68137C666.355 -4.84728 668.379 -4.07745 663.696 -3.37168C656.513 -3.08295 644.329 -6.57965 637.797 -3.90093C636.899 -4.1255 636.547 -4.35011 636.512 -4.55864C631.019 -3.88495 618.676 -3.41982 615.384 -1.99224C610.313 -7.31759 581.263 0.590311 581.386 -4.31799L564.502 -4.04524L564.942 -4.54258C554.149 -4.87943 550.329 -3.69243 546.543 -2.5215C544.043 -2.85834 545.874 -3.30751 546.068 -3.56415C530.222 -4.55864 528.743 -4.35012 515.521 -1.96013L514.148 -3.56415C510.626 -2.63382 491.347 -6.05042 475.889 -4.2058C476.03 -4.38224 476.347 -4.68691 477.65 -4.91147C460.255 -3.05081 435.993 -9.32256 429.62 -3.53204L418.14 -2.10444C433 -1.65531 414.891 -1.63925 421 -0.676834C415.172 -0.32395 406.943 -0.37207 414.108 -0.676834L415.235 -0.38822C417.876 -3.40378 396.784 -1.46291 397.171 -3.59626C367.944 -3.4519 339.457 -5.12008 312.08 -5.20028L315.231 -2.84222L305.688 -2.98673C303.171 -3.53209 302.308 -4.81524 309.122 -4.719C305.6 -6.05034 297.695 -3.61223 297.501 -3.11498C284.173 -4.06135 302.783 -5.85784 298.628 -5.90596L293.065 -5.72954L294.332 -5.45679C289.825 -4.49437 289.42 -3.48398 281.233 -3.59626C276.057 -4.06143 278.575 -5.03988 276.532 -5.20028C276.532 -5.36069 275.863 -5.44089 273.398 -5.20028L261.373 -5.40881L266.18 -3.5481C260.898 -2.6338 254.877 -3.64434 260.423 -1.54307C252.271 -4.75111 215.526 -2.71397 210.526 -3.70846C203.061 -2.36108 195.684 -2.39321 186.546 -2.55361C188.818 -2.16864 190.191 -0.0834093 182.303 -0.340053C185.191 -4.63883 167.884 -2.20066 161.51 -5.29642C167.197 -3.24328 139.115 -4.78313 148.041 -1.87985C141.474 -2.23274 147.636 -3.48388 142.654 -4.49441C127.019 -2.89039 108.18 -5.58527 88.8311 -5.02387C88.5318 -4.46246 91.7713 -3.59622 87.6338 -2.74608L77.4221 -5.56918C73.6016 -5.29649 73.9009 -2.36104 66.8583 -4.26983C67.8443 -3.80466 69.3056 -3.08289 66.7527 -2.90645C28.8638 -5.64932 -10.7153 -0.644887 -49.1499 -5.82588C-43.868 -4.7191 -47.3893 -4.62281 -51.3859 -4.57469C-48.7978 -4.31805 -51.3859 -3.17905 -50.9458 -2.42516L-67.038 -4.54258C-69.9782 -2.42527 -84.3098 -4.39826 -86 -2.37719L-80.8942 -2.73003C-87.6726 -0.340036 -71.4043 2.59529 -72.3903 5.65897C-64.8019 2.93214 -52.3719 9.70105 -39.9066 5.80328C-37.16 6.42885 -42.2482 6.78183 -40.7869 7.50364C-37.6178 6.18834 -33.7444 5.89961 -26.7018 6.49309L-27.4941 6.82988C-7.63412 6.50907 0.869705 7.80835 23.1946 8.65848L21.5396 7.1508C24.2564 7.2308 26.955 7.58573 29.5857 8.20931C35.0788 5.89952 16.1168 8.08111 21.1346 5.53072C27.4905 8.62648 54.9388 5.53067 59.2348 9.0916C66.6118 9.0916 57.0868 7.34329 64.5167 7.35933L66.471 8.30565L68.3373 7.08657C73.179 7.27906 75.6087 8.48206 75.8023 9.28407C74.2659 9.3026 72.7318 9.39908 71.2071 9.57289C77.475 10.6957 88.8135 9.18792 91.0319 9.57289L83.9893 8.99546C104.113 8.09721 128.692 9.34834 148.147 7.39144L146.668 6.68557C161.51 5.35423 158.57 7.4715 174.838 6.84593L174.239 7.02235C178.207 6.25124 182.262 5.91736 186.317 6.02787C182.198 6.878 194.064 7.63204 188.677 8.59446C204.769 7.16688 196.635 7.47147 207.269 4.80879L209.716 5.99595C213.343 4.92126 213.66 4.39178 221.794 4.03889C215.121 5.06547 227.076 5.85144 219.505 7.24694C236.601 9.84545 244.894 4.61631 252.729 8.41784C260.581 5.2098 237.939 6.58933 242.341 5.88356C238.661 4.80886 248.802 3.42948 254.172 3.75028C259.63 3.75028 263.451 7.9688 277.184 7.90464C275.828 7.90464 275.722 8.14527 274.367 8.12923C279.508 8.96332 284.438 6.99039 290.741 8.35381C294.262 6.36483 298.928 8.46608 299.949 5.93173L287.343 6.50915C294.491 5.8515 301.181 2.88409 312.942 4.3277C310.739 5.0779 308.455 5.61552 306.129 5.93173C309.65 6.68562 312.749 5.43435 316.305 6.20428C315.302 8.73864 301.005 6.74973 293.417 8.6906C297.114 9.76529 307.889 6.84608 303.981 9.605C309.509 6.10823 317.52 10.0541 326.869 7.37538L326.253 8.97941C328.619 8.45396 331.037 8.14753 333.471 8.065L328.577 10.0379C336.112 8.4339 343.084 11.4977 350.321 10.5834C335.197 10.5834 346.923 8.75472 340.531 7.64794C359.177 5.61083 351.254 11.6259 372.135 10.856C369.3 11.0805 361.571 9.94169 365.937 9.25196C369.874 9.46968 373.778 10.0393 377.593 10.9523C391.431 10.6315 375.48 9.34821 381.361 8.44995C386.079 10.3106 388.157 7.69612 394.213 7.10263V8.70665C410.059 9.70115 398.386 5.49858 412.577 6.66951L406.59 8.81885L413.985 8.27353L412.453 10.0219C420.499 8.7226 423.017 9.05958 430.905 9.55683C429.144 8.46609 431.926 6.74975 438.916 6.70162C443.669 7.61592 436.24 8.16133 446.134 7.95281C444.807 8.7103 443.303 9.1731 441.743 9.30405C440.184 9.43499 438.612 9.23038 437.155 8.70665C436.715 9.2039 434.954 9.66912 434.497 10.1664C439.62 11.225 447.384 10.407 450.958 10.407C449.658 10.3895 448.362 10.2659 447.085 10.0379L461.434 7.88858C463.688 8.48207 461.91 8.94734 460.131 9.39647C463.036 9.23606 465.044 8.51425 469.322 8.38593C468.213 9.6531 468.477 10.9363 462.438 11.594L476.1 10.1985C477.016 10.7438 483.143 11.7062 481.382 12.1714C488.953 12.9092 499.957 9.73322 510.01 10.7117C511.197 10.2983 512.454 10.0758 513.725 10.054C523.162 10.3267 531.525 11.8827 542.723 10.1503L549.061 12.412C557.864 11.8987 540.469 9.57282 555.065 8.70665C565.4 8.00088 558.921 10.6314 562.547 11.273C567.688 10.1342 576.633 7.80836 586.105 9.66903C582.689 9.79735 580.224 9.50859 577.284 9.63691ZM685.387 8.64243C683.292 8.96323 679.119 9.95772 677.587 9.04343C679.982 7.27901 681.813 8.12914 685.44 8.64243H685.387ZM849.725 4.90513C847.502 5.3336 845.195 5.22305 843.034 4.5844C845.27 4.44633 847.517 4.55396 849.725 4.90513ZM1307.49 -5.85779H1307.26C1302.61 -6.38712 1304.27 -6.14652 1307.51 -5.85779H1307.49ZM1317.19 -5.20028C1318.16 -5.40881 1318.09 -5.61717 1317.68 -5.84174C1315.96 -5.42035 1314.17 -5.31683 1312.4 -5.53707C1313.05 -5.12002 1314.3 -4.8474 1317.21 -5.20028H1317.19ZM275.229 -4.59075L277.113 -4.17369C272.87 -3.72456 274.067 -4.14162 275.212 -4.59075H275.229Z" fill="white"/>
</g>
<defs>
<clipPath id="clip0_504:2684">
<rect width="946" height="14" fill="white"/>
</clipPath>
</defs>
</svg>
